{"title":"WRC - Neste Rally Finland 2016_x264_RallyTorrents","uid":15467773,"size":848910213,"categoryP":"video","categoryS":"tv_shows","magnet":"?xt=urn:btih:38c77918baef0bd0fa35862cfcf7876236888b37&amp;dn=WRC+-+Neste+Rally+Finland+2016_x264_RallyTorrents&amp;tr=udp%3A%2F%2Ftracker.leechers-paradise.org%3A6969&amp;tr=udp%3A%2F%2Fzer0day.ch%3A1337&amp;tr=udp%3A%2F%2Fopen.demonii.com%3A1337&amp;tr=udp%3A%2F%2Ftracker.coppersurfer.tk%3A6969&amp;tr=udp%3A%2F%2Fexodus.desync.com%3A6969","seeders":11,"leechers":1,"uploader":"WRCForEver1","files":2,"time":1470112608,"description":"______      _ _     _____                         _       \r\n| ___     | | |   |_   _|                       | |      \r\n| |_/ /__ _| | |_   _| | ___  _ __ _ __ ___ _ __ | |_ ___ \r\n|    // _` | | | | | | |/ _ | '__| '__/ _  '_ | __/ __|\r\n| |  (_| | | | |_| | | (_) | |  | | |  __/ | | | |___ \r\n_| ___,_|_|_|__, _/___/|_|  |_|  ___|_| |_|__|___/\r\n                 __/ |                                    \r\n                |___/                                     \r\n-------------------------------------------------------------------------------------\r\n\r\nPLEASE SIGNUP to http://wrcplus.com !! this is the Best way to Get your Rally fix! \r\n\r\nWRC Plus Has daily highlights, Live stages! Live radio, Onboard videos, Speical Shows, Some of the Best Motorsports Coverage in the World! Got get it!\r\n\r\n \nhttp://wrcplus.com\r\n\r\n\r\nPlease help us keep bringing you the Best Rally Content! PLEASE Donate \r\nbitcoin 12CAaakmKuc5oMvhZkqFqmMbLdGS4URWsi\r\n\r\n\r\nMore to Come! Just need to Update our Servers@!\r\n\r\n\r\nEnjoy this Awsome Rally Content! and remember to Signup to wrcplus.com\r\n\r\nGeneral\r\nComplete name                            : WRC - Neste Rally Finland 2016_x264.mp4\r\nFormat                                   : MPEG-4\r\nFormat profile                           : Base Media\r\nCodec ID                                 : isom (isom/iso2/avc1/mp41)\r\nFile size                                : 810 MiB\r\nDuration                                 : 51 min\r\nOverall bit rate mode                    : Variable\r\nOverall bit rate                         : 2 180 kb/s\r\nRecorded date                            : 0\r\nWriting application                      : Lavf56.36.100\r\nCover                                    : Yes\r\n\r\nVideo\r\nID                                       : 1\r\nFormat                                   : AVC\r\nFormat/Info                              : Advanced Video Codec\r\nFormat profile                           :   \r\nFormat settings, CABAC                   : Yes\r\nFormat settings, ReFrames                : 1 frame\r\nFormat settings, GOP                     : M=1, N=12\r\nCodec ID                                 : avc1\r\nCodec ID/Info                            : Advanced Video Coding\r\nDuration                                 : 51 min\r\nBit rate                                 : 2 023 kb/s\r\nWidth                                    : 1 280 pixels\r\nHeight                                   : 720 pixels\r\nDisplay aspect ratio                     : 16:9\r\nFrame rate mode                          : Constant\r\nFrame rate                               : 25.000 FPS\r\nColor space                              : YUV\r\nChroma subsampling                       : 4:2:0\r\nBit depth                                : 8 bits\r\nScan type                                : Progressive\r\nBits/(Pixel*Frame)                       : 0.088\r\nStream size                              : 751 MiB (93%)\r\nColor range                              : Limited\r\n\r\nAudio\r\nID                                       : 2\r\nFormat                                   : AAC\r\nFormat/Info                              : Advanced Audio Codec\r\nFormat profile                           : LC\r\nCodec ID                                 : 40\r\nDuration                                 : 51 min\r\nDuration_LastFrame                       : -7 ms\r\nBit rate mode                            : Variable\r\nBit rate                                 : 152 kb/s\r\nMaximum bit rate                         : 160 kb/s\r\nChannel(s)                               : 2 channels\r\nChannel positions                        : Front: L R\r\nSampling rate                            : 44.1 kHz\r\nFrame rate                               : 43.066 FPS (1024 spf)\r\nCompression mode                         : Lossy\r\nStream size                              : 56.4 MiB (7%)\r\nDefault                                  : Yes\r\nAlternate group                          : 1","torrent":{"xt":"urn:btih:38c77918baef0bd0fa35862cfcf7876236888b37","amp;dn":"WRC+-+Neste+Rally+Finland+2016_x264_RallyTorrents","amp;tr":["udp%3A%2F%2Ftracker.leechers-paradise.org%3A6969","udp%3A%2F%2Fzer0day.ch%3A1337","udp%3A%2F%2Fopen.demonii.com%3A1337","udp%3A%2F%2Ftracker.coppersurfer.tk%3A6969","udp%3A%2F%2Fexodus.desync.com%3A6969"],"infoHash":"38c77918baef0bd0fa35862cfcf7876236888b37","infoHashBuffer":{"type":"Buffer","data":[56,199,121,24,186,239,11,208,250,53,134,44,252,247,135,98,54,136,139,55]},"announce":[],"urlList":[]}}